<svg width="28" height="26" viewBox="0 0 28 26" fill="none" xmlns="http://www.w3.org/2000/svg">
<path d="M19.9042 25.3557C19.2364 25.3557 18.7399 25.0393 17.9086 24.333L13.8016 20.8151H6.53919C2.92701 20.8151 0.903553 18.8078 0.903553 15.3627V6.36002C0.903553 2.91491 2.92701 0.907593 6.53919 0.907593H21.8441C25.4541 0.907593 27.4775 2.90539 27.4775 6.36002V15.3627C27.4775 18.8173 25.4045 20.8151 21.9197 20.8151H21.4258V23.6766C21.4258 24.7021 20.8693 25.3557 19.9042 25.3557ZM19.3215 22.7989V19.4847C19.3215 18.8035 19.6232 18.5409 20.297 18.5409H21.7771C24.0453 18.5409 25.1268 17.4246 25.1268 15.2906V6.42271C25.1268 4.28862 24.0453 3.18188 21.7771 3.18188H6.604C4.34567 3.18188 3.25424 4.28862 3.25424 6.42271V15.2906C3.25424 17.4246 4.34567 18.5409 6.604 18.5409H13.9297C14.6578 18.5409 15.0046 18.6547 15.5123 19.1513L19.3215 22.7989Z" fill="black"/>
</svg>
