<svg width="1186" height="260" fill="none" xmlns="http://www.w3.org/2000/svg"><path d="M.69 260V.486h166.83v44.488H49.627v61.913H157.14v44.488H49.627v64.137h120.117V260H.69zm205.279 0V.486h106.772c16.312 0 30.647 3.337 43.005 10.01 12.605 6.426 22.367 15.57 29.288 27.434 7.167 11.864 10.751 25.952 10.751 42.264v5.19c0 16.065-3.707 30.153-11.122 42.264-7.167 11.863-17.054 21.132-29.659 27.805-12.357 6.426-26.445 9.639-42.263 9.639h-57.835V260h-48.937zm48.937-139.396h53.015c11.616 0 21.008-3.213 28.176-9.639 7.167-6.426 10.751-15.2 10.751-26.322v-3.708c0-11.122-3.584-19.896-10.751-26.322-7.168-6.426-16.56-9.639-28.176-9.639h-53.015v75.63zM429.713 260V.486h48.937V260h-48.937zm90.338 0v-43.005h34.107V43.491h-34.107V.486h106.771c34.849 0 61.295 8.898 79.337 26.693 18.29 17.548 27.434 43.747 27.434 78.596v48.937c0 34.849-9.144 61.171-27.434 78.966C688.117 251.226 661.671 260 626.822 260H520.051zm83.044-44.488h24.468c19.773 0 34.232-5.19 43.376-15.571 9.145-10.38 13.717-24.963 13.717-43.747v-51.902c0-19.031-4.572-33.614-13.717-43.747-9.144-10.38-23.603-15.57-43.376-15.57h-24.468v170.537zM774.38 260V.486h166.83v44.488H823.317v61.913H930.83v44.488H823.317v64.137h120.118V260H774.38zm188.967 0 76.003-130.869L964.089.486h55.611l51.53 93.796h6.67L1129.44.486h55.61l-75.26 128.645 76 130.869h-55.61l-52.28-96.02h-6.67L1018.96 260h-55.613z" fill="#fff"/></svg>