<svg xmlns="http://www.w3.org/2000/svg" width="2592" height="2584"><path fill-rule="evenodd" d="M154 .3 2436 0l27 10.2c14.8 5.6 34.1 15 42.9 21 8.7 5.9 22.6 17.1 30.8 24.8s15 15.3 15.1 17c.1 1.6 3.8 7 8.2 12 4.4 4.9 12.9 22.5 30 69v2280l-12.4 28c-6.8 15.4-16.8 34.3-22.1 42s-14.1 18.5-19.6 24-19 16.2-29.9 23.7c-11 7.5-31.7 17.9-72 32.3H156l-25-9.4c-13.8-5.2-33.1-14.8-43-21.2s-23.4-17-30-23.5c-6.6-6.6-16.9-19.1-22.9-27.9-5.9-8.8-15.8-27.7-33.1-68V150l12.9-32c9.5-23.8 18.8-38.4 36-56.9C63.6 47.4 75.8 36.1 78 36s6.7-2.8 10-6 19.5-11.2 36-17.8zm343 379.3c-11.6 4.6-26.9 12.5-34 17.4-7.2 4.9-19.9 15.2-28.4 23-8.5 7.7-22.1 23.1-30.3 34.1s-20 32.6-26.4 48c-10.7 25.8-11.5 31.8-11.4 78 .1 45.6 1.1 52.4 11.5 78 6.3 15.4 18.1 37 26.3 48 8.1 11 20.9 25.5 28.3 32.2 7.3 6.7 19.7 16.7 27.4 22.2 7.7 5.6 26.6 15.4 42 21.8 26.1 11 31.3 11.7 80 11.7 49.7-.1 53.2-.7 80-12.8 15.4-7 37.6-19.6 49.2-27.9 11.7-8.4 30.7-27.8 42.2-43.2s25.7-40.6 31.6-56c5.8-15.4 11.6-38.8 12.9-52s.7-35.7-1.2-50c-2-14.3-8.3-38.2-14.1-53-5.9-14.9-13.2-30.2-16.4-34l-17-21.3c-6.2-7.9-17.5-19.7-25.2-26.3s-19.4-15.7-26-20.4c-6.6-4.6-26-13.9-43-20.7-28.2-11.2-34.9-12.3-74-12-23.7.2-47.5 1.8-53 3.5-5.5 1.8-19.5 7-31 11.7zm1119 582.7c-20.9 6.1-43.4 14.4-50 18.4s-14 7.3-16.4 7.3-13.8 5.9-25.4 13.1c-11.6 7.1-32.1 21.8-45.6 32.6-13.5 10.9-33.2 28.9-43.7 40-10.5 11.2-25.4 30.7-33 43.4-9.5 15.7-16.4 23-21.9 23-7.7 0-8-2.7-8-84v-84h-356v1224h372l11.1-741c4.9-21.5 14.4-51.2 21.2-66 6.8-14.9 19-35.4 27-45.6 8.1-10.2 24.2-25.5 35.8-34s35.5-20.4 53-26.4c28.2-9.8 37.9-11.1 82.9-11.2 28-.1 56.4 1.6 63 3.6 6.6 2.1 21.9 8.2 34 13.6s31.4 19.1 43 30.4c12.8 12.5 25.5 30.3 32.5 45.6 6.4 13.7 14.4 34.9 17.8 47s8.1 38.2 10.4 58c2.7 22.5 4.3 164.9 4.3 381v345h380l-9.6-822-9.9-76c-2-13.2-9.4-43.8-16.5-68s-21.9-62-32.9-84c-10.9-22-23.8-45.2-28.5-51.4-4.7-6.3-22.1-25.2-38.6-42.1-16.5-16.8-41.7-37.5-56-46-14.3-8.4-36.8-19.8-50-25.2s-41.1-14.4-62-19.9-56-11.6-78-13.6-56.2-3.4-76-3.2c-19.8.3-48.6 1.8-64 3.5s-45.1 8.1-66 14.1zM392 2196.1h376v-1224H392z" fill="#fefeff"/></svg>