<svg width="35" height="35" viewBox="0 0 25 25" fill="none" xmlns="http://www.w3.org/2000/svg">
<path d="M12.105 24.21C18.7369 24.21 24.2121 18.7273 24.2121 12.105C24.2121 5.47312 18.7273 0 12.0954 0C5.47523 0 0 5.47312 0 12.105C0 18.7273 5.48484 24.21 12.105 24.21ZM12.105 21.8255C6.71085 21.8255 2.39412 17.4991 2.39412 12.105C2.39412 6.71085 6.70124 2.38452 12.0954 2.38452C17.4895 2.38452 21.8276 6.71085 21.8276 12.105C21.8276 17.4991 17.4991 21.8255 12.105 21.8255ZM19.9181 19.8361L19.8766 19.6418C19.14 17.9212 16.196 16.1442 12.105 16.1442C8.02569 16.1442 5.07959 17.9212 4.33545 19.6322L4.29397 19.8361C6.49826 21.8651 9.86835 22.9826 12.105 22.9826C14.3534 22.9826 17.6946 21.8747 19.9181 19.8361ZM12.105 14.2132C14.3794 14.2324 16.1414 12.2979 16.1414 9.78468C16.1414 7.4196 14.3655 5.4478 12.105 5.4478C9.84656 5.4478 8.05898 7.4196 8.0707 9.78468C8.08031 12.2979 9.84234 14.194 12.105 14.2132Z" fill="black"/>
</svg>
