<svg width="297" height="37" fill="none" xmlns="http://www.w3.org/2000/svg"><path d="M22.805 11.625c.091-1.284-.25-2.278-1.022-2.983-.762-.704-1.966-1.057-3.614-1.057-1.09 0-2.023.142-2.795.426-.773.273-1.381.66-1.824 1.16a3.35 3.35 0 0 0-.836 1.704c-.102.511-.073.966.086 1.364.159.397.437.75.835 1.056.409.307.915.574 1.517.802.614.227 1.301.426 2.063.596l2.863.682c1.66.375 3.097.875 4.313 1.5 1.227.614 2.221 1.358 2.983 2.233a7.06 7.06 0 0 1 1.568 2.983c.284 1.125.307 2.386.068 3.784-.364 2.204-1.233 4.097-2.608 5.676-1.364 1.58-3.148 2.79-5.352 3.63-2.194.842-4.745 1.262-7.654 1.262s-5.38-.437-7.414-1.312c-2.023-.887-3.49-2.222-4.398-4.006-.91-1.784-1.154-4.034-.733-6.75h8.062c-.125 1.125.017 2.063.426 2.813.42.75 1.069 1.318 1.944 1.704.875.386 1.931.58 3.17.58 1.136 0 2.13-.154 2.983-.46.864-.308 1.551-.734 2.063-1.279.522-.546.84-1.17.954-1.875.114-.648.006-1.21-.324-1.688-.318-.477-.863-.892-1.636-1.244-.761-.352-1.761-.67-3-.954l-3.494-.853c-2.887-.704-5.074-1.83-6.563-3.375-1.477-1.545-2-3.642-1.568-6.29.364-2.17 1.261-4.068 2.693-5.693 1.443-1.625 3.267-2.886 5.472-3.784 2.216-.909 4.653-1.363 7.312-1.363 2.705 0 4.977.46 6.818 1.38 1.853.91 3.188 2.194 4.006 3.853.83 1.647 1.068 3.573.716 5.778h-8.08zm27.563 13.074 2.488-14.88h8.319L56.81 36h-7.943l.801-4.875h-.273c-.806 1.602-1.994 2.875-3.562 3.818-1.568.932-3.335 1.398-5.301 1.398-1.784 0-3.284-.41-4.5-1.227-1.216-.819-2.08-1.96-2.591-3.426-.5-1.478-.591-3.205-.273-5.182l2.796-16.688H44.3L41.794 24.87c-.216 1.42-.028 2.54.563 3.358.602.819 1.545 1.227 2.83 1.227a5.15 5.15 0 0 0 2.334-.545 5.114 5.114 0 0 0 1.841-1.62c.512-.715.847-1.579 1.006-2.59zM62.116 36 66.48 9.818h8.097l-.801 4.773h.272c.762-1.727 1.756-3.011 2.983-3.852 1.227-.853 2.557-1.279 3.989-1.279.386 0 .773.029 1.159.085.398.046.773.114 1.125.205l-1.227 7.261c-.387-.147-.892-.255-1.517-.323-.625-.08-1.194-.12-1.705-.12-.989 0-1.909.222-2.761.665a6.229 6.229 0 0 0-2.148 1.824c-.58.773-.96 1.682-1.142 2.727L70.452 36h-8.335zm30.998.494c-2.762 0-5.04-.568-6.836-1.704-1.784-1.137-3.034-2.716-3.75-4.739-.716-2.034-.846-4.386-.392-7.057.432-2.681 1.347-5.034 2.745-7.056a14.65 14.65 0 0 1 5.352-4.756c2.17-1.136 4.625-1.705 7.364-1.705 2.42 0 4.454.438 6.102 1.313 1.659.875 2.858 2.113 3.596 3.716.75 1.59.972 3.46.665 5.608h-7.79c.069-1.33-.204-2.375-.818-3.137-.613-.773-1.505-1.159-2.676-1.159-.989 0-1.898.273-2.727.818-.818.535-1.517 1.33-2.097 2.387-.568 1.045-.977 2.34-1.227 3.886-.25 1.546-.267 2.852-.051 3.92.227 1.057.653 1.858 1.278 2.404.637.534 1.444.801 2.42.801.773 0 1.49-.165 2.148-.494a4.962 4.962 0 0 0 1.722-1.45c.489-.647.87-1.43 1.142-2.351h7.773c-.443 2.17-1.301 4.062-2.574 5.676-1.261 1.602-2.858 2.852-4.79 3.75-1.932.886-4.125 1.33-6.58 1.33zm23.799-.05c-1.659 0-3.091-.28-4.295-.836-1.193-.568-2.068-1.426-2.625-2.574-.546-1.148-.676-2.58-.392-4.295.25-1.455.71-2.677 1.381-3.665a8.523 8.523 0 0 1 2.505-2.438c1-.625 2.114-1.102 3.341-1.431a21.98 21.98 0 0 1 3.852-.665c1.5-.137 2.716-.284 3.648-.443.943-.16 1.648-.381 2.114-.665.466-.296.75-.705.852-1.227v-.086c.136-.875-.051-1.55-.562-2.028-.512-.477-1.279-.716-2.302-.716-1.091 0-2.022.239-2.795.716a3.79 3.79 0 0 0-1.619 1.977l-7.637-.273a10.746 10.746 0 0 1 2.455-4.26c1.159-1.262 2.63-2.25 4.415-2.967 1.795-.727 3.869-1.09 6.221-1.09 1.659 0 3.159.198 4.5.596 1.341.386 2.472.954 3.392 1.704a6.137 6.137 0 0 1 1.995 2.728c.397 1.08.482 2.312.255 3.698L132.629 36h-7.841l.614-3.648h-.205a9.489 9.489 0 0 1-2.164 2.25 8.762 8.762 0 0 1-2.762 1.381c-1.022.307-2.142.46-3.358.46zm3.512-5.455c.875 0 1.704-.182 2.488-.546a5.646 5.646 0 0 0 1.978-1.5 4.663 4.663 0 0 0 1.039-2.25l.392-2.489a4.702 4.702 0 0 1-.903.341c-.364.103-.75.2-1.159.29-.409.08-.83.16-1.261.239-.421.068-.824.13-1.211.187-.818.125-1.528.319-2.13.58-.603.261-1.086.602-1.449 1.023-.352.409-.568.897-.648 1.465-.136.853.063 1.512.597 1.978.534.454 1.289.682 2.267.682zm26.829 5.386c-1.932 0-3.608-.5-5.028-1.5-1.421-1-2.438-2.5-3.051-4.5-.603-2-.659-4.483-.171-7.449.512-3.08 1.421-5.613 2.728-7.602 1.306-1.989 2.829-3.46 4.568-4.415 1.75-.954 3.534-1.432 5.352-1.432 1.375 0 2.511.239 3.409.716.909.466 1.619 1.068 2.131 1.807a6.91 6.91 0 0 1 1.057 2.301h.187l2.199-13.21h8.335L163.175 36h-8.25l.699-4.244h-.256a10.544 10.544 0 0 1-1.875 2.267c-.761.704-1.665 1.272-2.71 1.704-1.034.432-2.211.648-3.529.648zm3.938-6.494a4.7 4.7 0 0 0 2.744-.853c.818-.58 1.506-1.392 2.063-2.437.568-1.046.965-2.273 1.193-3.682.238-1.432.25-2.665.034-3.699-.216-1.034-.642-1.83-1.279-2.386-.625-.557-1.448-.835-2.471-.835-1.023 0-1.938.284-2.744.852-.807.568-1.478 1.37-2.012 2.403-.534 1.034-.92 2.256-1.159 3.665-.227 1.41-.25 2.637-.068 3.682.193 1.045.596 1.858 1.21 2.437.625.569 1.455.853 2.489.853zm29.454 6.613c-2.738 0-5.011-.54-6.818-1.619-1.795-1.09-3.057-2.642-3.784-4.653-.727-2.023-.858-4.427-.392-7.21.455-2.705 1.381-5.069 2.778-7.091 1.409-2.035 3.182-3.614 5.319-4.74 2.136-1.135 4.517-1.704 7.142-1.704 1.863 0 3.517.29 4.96.87 1.443.58 2.636 1.443 3.579 2.59.944 1.137 1.586 2.535 1.927 4.194.34 1.659.329 3.562-.035 5.71l-.323 2.08H172.26l.767-4.841h15c.136-.887.062-1.677-.222-2.37a3.32 3.32 0 0 0-1.38-1.62c-.625-.397-1.392-.596-2.301-.596-.921 0-1.785.216-2.591.648a6.233 6.233 0 0 0-2.029 1.705 5.587 5.587 0 0 0-1.091 2.42l-.903 4.96c-.182 1.102-.131 2.046.153 2.83a3.403 3.403 0 0 0 1.466 1.807c.693.409 1.585.613 2.676.613a7.01 7.01 0 0 0 2.046-.29 5.333 5.333 0 0 0 1.704-.903c.512-.409.927-.903 1.245-1.483l7.602.222a11.855 11.855 0 0 1-2.847 4.483c-1.284 1.261-2.852 2.244-4.704 2.949-1.841.693-3.909 1.04-6.205 1.04zm27.627-15.426L205.784 36h-8.335l4.363-26.182h7.927l-.784 4.807h.289a9.04 9.04 0 0 1 3.563-3.767c1.557-.92 3.307-1.38 5.25-1.38 1.829 0 3.358.408 4.585 1.226 1.227.819 2.097 1.966 2.608 3.444.511 1.466.597 3.187.256 5.165L222.71 36h-8.335l2.506-15.051c.25-1.443.074-2.574-.529-3.392-.591-.83-1.557-1.244-2.897-1.244-.875 0-1.677.193-2.404.579a5.017 5.017 0 0 0-1.807 1.62c-.477.704-.801 1.556-.971 2.556zm31.7 15.426c-2.761 0-5.04-.568-6.835-1.704-1.784-1.137-3.034-2.716-3.75-4.739-.716-2.034-.847-4.386-.392-7.057.432-2.681 1.346-5.034 2.744-7.056a14.655 14.655 0 0 1 5.352-4.756c2.171-1.136 4.625-1.705 7.364-1.705 2.42 0 4.455.438 6.102 1.313 1.659.875 2.858 2.113 3.597 3.716.75 1.59.971 3.46.665 5.608h-7.79c.068-1.33-.205-2.375-.818-3.137-.614-.773-1.506-1.159-2.676-1.159-.989 0-1.898.273-2.728.818-.818.535-1.517 1.33-2.096 2.387-.569 1.045-.978 2.34-1.228 3.886-.25 1.546-.267 2.852-.051 3.92.228 1.057.654 1.858 1.279 2.404.636.534 1.443.801 2.42.801.773 0 1.489-.165 2.148-.494a4.955 4.955 0 0 0 1.721-1.45c.489-.647.87-1.43 1.142-2.351h7.773c-.443 2.17-1.301 4.062-2.574 5.676-1.261 1.602-2.858 2.852-4.789 3.75-1.932.886-4.125 1.33-6.58 1.33zm28.658 0c-2.739 0-5.012-.54-6.819-1.619-1.795-1.09-3.056-2.642-3.784-4.653-.727-2.023-.858-4.427-.392-7.21.455-2.705 1.381-5.069 2.779-7.091 1.409-2.035 3.182-3.614 5.318-4.74 2.136-1.135 4.517-1.704 7.142-1.704 1.864 0 3.517.29 4.96.87 1.443.58 2.637 1.443 3.58 2.59.943 1.137 1.585 2.535 1.926 4.194.341 1.659.329 3.562-.034 5.71l-.324 2.08h-22.739l.767-4.841h15c.137-.887.063-1.677-.221-2.37a3.321 3.321 0 0 0-1.381-1.62c-.625-.397-1.392-.596-2.301-.596a5.41 5.41 0 0 0-2.591.648 6.23 6.23 0 0 0-2.028 1.705 5.576 5.576 0 0 0-1.091 2.42l-.904 4.96c-.181 1.102-.13 2.046.154 2.83a3.398 3.398 0 0 0 1.466 1.807c.693.409 1.585.613 2.676.613.727 0 1.409-.096 2.045-.29a5.328 5.328 0 0 0 1.705-.903 4.9 4.9 0 0 0 1.244-1.483l7.602.222a11.84 11.84 0 0 1-2.846 4.483c-1.284 1.261-2.852 2.244-4.705 2.949-1.841.693-3.909 1.04-6.204 1.04zm23.62 0c-1.227 0-2.278-.431-3.153-1.295-.864-.864-1.29-1.91-1.278-3.136-.012-1.205.414-2.234 1.278-3.086.875-.863 1.926-1.295 3.153-1.295 1.16 0 2.182.432 3.069 1.295.897.852 1.352 1.881 1.363 3.085a4.233 4.233 0 0 1-.647 2.233 4.656 4.656 0 0 1-1.62 1.603 4.11 4.11 0 0 1-2.165.596z" fill="#fff"/></svg>