<svg width="26" height="28" viewBox="0 0 26 28" fill="none" xmlns="http://www.w3.org/2000/svg">
<path d="M0.174316 19.0973C0.174316 23.2099 2.82666 26.6147 6.20658 26.6147H10.0728C11.6469 27.4222 13.5255 27.8827 15.5956 27.8827H17.2368C18.7567 27.8827 20.055 27.7917 20.9041 27.5774C22.6259 27.1569 23.7216 25.9263 23.7216 24.3979C23.7216 24.1176 23.6776 23.869 23.6094 23.6206C24.4136 22.9815 24.863 22.0666 24.863 21.0649C24.863 20.5979 24.7707 20.1352 24.6079 19.7628C25.1518 19.1786 25.4518 18.3558 25.4518 17.4902C25.4518 16.9354 25.321 16.3596 25.0936 15.9236C25.4199 15.4217 25.6089 14.7375 25.6089 14.0104C25.6089 12.1461 24.1736 10.6965 22.3136 10.6965H17.9479C17.7125 10.6965 17.5585 10.5865 17.5673 10.3721C17.6281 9.1652 19.532 6.25977 19.532 3.87572C19.532 2.11361 18.2915 0.844604 16.5997 0.844604C15.3623 0.844604 14.5127 1.48902 13.7078 3.02415C12.2546 5.8283 10.4777 8.31751 7.86355 11.5273H5.76496C2.59704 11.5273 0.174316 14.898 0.174316 19.0973ZM7.47897 19.0043C7.47897 16.5088 8.03831 14.9188 9.61816 12.7907C11.3902 10.4178 13.852 7.566 15.6262 4.03525C16.0004 3.27916 16.2556 3.10754 16.6308 3.10754C17.0719 3.10754 17.3669 3.42322 17.3669 3.99318C17.3669 5.73718 15.3826 8.63512 15.3826 10.5418C15.3826 11.9604 16.5161 12.8615 18.0494 12.8615H22.2635C22.9368 12.8615 23.4439 13.3664 23.4439 14.0431C23.4439 14.5337 23.2822 14.8472 22.885 15.2609C22.5761 15.5564 22.5367 15.9918 22.8071 16.2975C23.1406 16.786 23.2824 17.0896 23.2824 17.4945C23.2824 17.971 23.0548 18.3857 22.5817 18.7389C22.1894 19.0316 22.0489 19.4903 22.2682 19.9596C22.5333 20.4403 22.661 20.6767 22.661 21.0497C22.661 21.6073 22.3013 22.0373 21.5531 22.4267C21.1806 22.6447 21.0833 23.0363 21.2355 23.3989C21.4843 24.0197 21.5184 24.1219 21.5162 24.387C21.5162 24.8842 21.1466 25.2879 20.3615 25.4859C19.6748 25.6529 18.5641 25.7298 17.1293 25.7277L15.7111 25.7254C10.7709 25.7167 7.47897 22.9322 7.47897 19.0043ZM2.3089 19.0973C2.3089 16.1227 3.83921 13.7467 5.59093 13.6749C5.89356 13.6727 6.19837 13.6706 6.501 13.6662C5.67554 15.2814 5.31175 16.9669 5.31175 19.0007C5.31175 21.1423 6.05479 23.0342 7.40333 24.5159C6.96848 24.5159 6.53049 24.5137 6.08694 24.5115C4.04878 24.4376 2.3089 22.0264 2.3089 19.0973Z" fill="black"/>
</svg>
