<svg width="1094" height="446" fill="none" xmlns="http://www.w3.org/2000/svg"><path d="M534.082 94.925 601.555 360h66.732l39.669-165.347h.742L748.366 360h66.732l67.474-265.075H815.84l-34.108 179.806h-.741L739.839 94.925h-63.025l-41.151 179.806h-.742L600.814 94.925h-66.732zm366.815 0V360h184.623v-54.498H967.629V94.925h-66.732zM.37 95.296l88.977 167.201v97.874h66.732v-97.874l89.347-167.201h-70.439l-51.903 108.996h-.742L70.81 95.296H.37z" fill="#fff"/><mask id="a" fill="#fff"><path fill-rule="evenodd" clip-rule="evenodd" d="M389.271 359.612c76.782 0 139.026-62.244 139.026-139.025 0-76.782-62.244-139.025-139.026-139.025-76.781 0-139.025 62.243-139.025 139.025V359.613h139.026l-.001-.001z"/></mask><path d="M389.271 359.612v-54.498H313.66l23.91 71.732 51.701-17.234zM250.246 220.775h54.498v-.072l-54.498.072zm0 138.838h-54.498v54.497h54.498v-54.497zm139.026 0v54.497h75.611l-23.91-71.731-51.701 17.234zm84.527-139.026c0 46.683-37.844 84.527-84.528 84.527V414.11c106.88 0 193.524-86.643 193.524-193.523H473.799zm-84.528-84.528c46.684 0 84.528 37.845 84.528 84.528h108.996c0-106.88-86.644-193.523-193.524-193.523v108.995zm-84.527 84.528c0-46.683 37.844-84.528 84.527-84.528V27.064c-106.88 0-193.523 86.643-193.523 193.523h108.996zm0 .116v-.116H195.748v.26l108.996-.144zm0 138.91V220.775H195.748v138.838h108.996zm84.528-54.498H250.246V414.11h139.026V305.115zm-51.702 71.731 103.403-34.467v-.001L337.57 376.846z" fill="#15E3A5" mask="url(#a)"/></svg>