<svg width="1094" height="446" viewBox="0 0 1094 446" fill="none" xmlns="http://www.w3.org/2000/svg">
<path d="M534.082 94.9251L601.555 360H668.287L707.956 194.653H708.698L748.366 360H815.098L882.572 94.9251H815.84L781.732 274.731H780.991L739.839 94.9251H676.814L635.663 274.731H634.921L600.814 94.9251H534.082ZM900.897 94.9251V360H1085.52V305.502H967.629V94.9251H900.897Z" fill="white"/>
<path d="M0.370734 95.2957L89.3469 262.497V360.371H156.079V262.497L245.426 95.2957H174.987L123.084 204.292H122.342L70.8102 95.2957H0.370734Z" fill="white"/>
<mask id="path-3-inside-1_519_273" fill="white">
<path fill-rule="evenodd" clip-rule="evenodd" d="M389.271 359.612C466.053 359.612 528.297 297.368 528.297 220.587C528.297 143.805 466.053 81.5615 389.271 81.5615C312.49 81.5615 250.246 143.805 250.246 220.587C250.246 220.65 250.246 220.712 250.246 220.775V359.613H389.272L389.271 359.612Z"/>
</mask>
<path d="M389.271 359.612V305.114H313.66L337.57 376.846L389.271 359.612ZM250.246 220.775H304.744V220.739L304.744 220.703L250.246 220.775ZM250.246 359.613H195.748V414.11H250.246V359.613ZM389.272 359.613V414.11H464.883L440.973 342.379L389.272 359.613ZM473.799 220.587C473.799 267.27 435.955 305.114 389.271 305.114V414.11C496.151 414.11 582.795 327.467 582.795 220.587H473.799ZM389.271 136.059C435.955 136.059 473.799 173.904 473.799 220.587H582.795C582.795 113.707 496.151 27.0636 389.271 27.0636V136.059ZM304.744 220.587C304.744 173.904 342.588 136.059 389.271 136.059V27.0636C282.391 27.0636 195.748 113.707 195.748 220.587H304.744ZM304.744 220.703C304.744 220.664 304.744 220.626 304.744 220.587H195.748C195.748 220.674 195.748 220.761 195.748 220.847L304.744 220.703ZM304.744 359.613V220.775H195.748V359.613H304.744ZM389.272 305.115H250.246V414.11H389.272V305.115ZM337.57 376.846L337.57 376.846L440.973 342.379L440.973 342.378L337.57 376.846Z" fill="#15E3A5" mask="url(#path-3-inside-1_519_273)"/>
</svg>
