<?xml version="1.0" standalone="no"?>
<!DOCTYPE svg PUBLIC "-//W3C//DTD SVG 20010904//EN"
 "http://www.w3.org/TR/2001/REC-SVG-20010904/DTD/svg10.dtd">
<svg version="1.0" xmlns="http://www.w3.org/2000/svg"
 width="700.000000pt" height="700.000000pt" viewBox="0 0 700.000000 700.000000"
 preserveAspectRatio="xMidYMid meet">
<metadata>
Created by potrace 1.14, written by Peter Selinger 2001-2017
</metadata>
<g transform="translate(0.000000,700.000000) scale(0.100000,-0.100000)"
fill="#000000" stroke="none">
<path d="M3347 6984 c-1 -1 -50 -5 -110 -8 -59 -4 -115 -9 -125 -10 -9 -2 -44
-7 -77 -11 -32 -4 -68 -9 -80 -11 -11 -2 -38 -7 -59 -9 -22 -3 -60 -10 -85
-16 -25 -6 -57 -13 -71 -15 -295 -56 -716 -223 -1028 -408 -90 -54 -287 -187
-333 -224 -8 -7 -59 -48 -114 -93 -127 -104 -367 -345 -471 -474 -69 -86 -202
-268 -241 -331 -51 -81 -136 -230 -163 -284 -17 -36 -40 -81 -50 -100 -60
-115 -172 -424 -226 -625 -7 -25 -56 -263 -60 -290 -3 -16 -6 -39 -8 -50 -2
-11 -7 -47 -10 -80 -4 -33 -9 -69 -11 -80 -15 -77 -18 -439 -19 -2043 l-1
-1813 1890 4 c1040 2 1904 6 1920 9 17 3 57 8 90 12 62 7 125 15 160 22 11 2
34 7 50 9 580 101 1179 383 1630 769 38 33 75 64 82 70 19 16 247 247 275 277
427 482 714 1074 827 1711 23 130 27 163 46 383 6 65 6 350 0 440 -43 665
-264 1284 -652 1823 -43 59 -87 118 -99 132 -12 14 -52 61 -89 105 -56 66
-311 324 -357 360 -7 6 -40 33 -73 60 -110 90 -187 147 -310 227 -100 66 -117
76 -230 138 -101 55 -127 68 -227 114 -290 133 -683 246 -978 281 -25 3 -61 7
-80 10 -103 13 -521 28 -533 19z m488 -1394 c283 -49 530 -140 760 -280 70
-42 155 -100 165 -111 3 -3 23 -18 44 -35 238 -177 479 -482 616 -778 40 -87
124 -325 134 -382 3 -16 8 -40 11 -54 49 -212 64 -523 34 -705 -4 -27 -10 -68
-13 -90 -24 -187 -113 -450 -220 -650 -48 -90 -165 -275 -186 -295 -3 -3 -25
-30 -49 -60 -49 -61 -221 -234 -291 -293 -86 -72 -286 -199 -411 -261 -103
-51 -324 -135 -398 -151 -9 -2 -59 -13 -111 -24 -88 -18 -120 -23 -264 -38
-40 -4 -2144 -8 -2257 -4 l-26 1 3 1153 c2 633 5 1163 7 1177 2 14 7 52 12 85
4 33 9 65 10 70 1 6 5 28 10 50 60 313 220 654 426 910 60 74 207 227 275 285
193 166 464 318 711 399 67 22 132 43 145 45 25 5 155 31 203 41 17 3 66 8
110 12 44 3 82 7 84 9 13 11 363 -8 466 -26z"/>
</g>
</svg>
