<?xml version="1.0" standalone="no"?>
<!DOCTYPE svg PUBLIC "-//W3C//DTD SVG 20010904//EN"
 "http://www.w3.org/TR/2001/REC-SVG-20010904/DTD/svg10.dtd">
<svg version="1.0" xmlns="http://www.w3.org/2000/svg"
 width="400.000000pt" height="400.000000pt" viewBox="0 0 400.000000 400.000000"
 preserveAspectRatio="xMidYMid meet">
<metadata>
Created by potrace 1.14, written by Peter Selinger 2001-2017
</metadata>
<g transform="translate(0.000000,400.000000) scale(0.100000,-0.100000)"
fill="#000000" stroke="none">
<path d="M2065 3827 c-4 -10 -3 -29 4 -43 15 -34 14 -36 -9 -29 -13 4 -20 2
-20 -7 -1 -10 -4 -9 -13 2 -7 8 -22 20 -34 27 -19 11 -22 10 -25 -10 -2 -15
-9 -21 -20 -19 -21 3 -23 -5 -5 -28 6 -9 3 -7 -9 5 -35 35 -77 53 -141 58 -35
3 -63 4 -63 2 0 -2 14 -27 32 -54 32 -53 31 -74 -2 -53 -14 9 -20 9 -23 -1 -3
-9 -9 -9 -23 1 -11 6 -25 15 -32 18 -20 10 -69 -15 -77 -39 -7 -21 -8 -20 -12
6 -5 33 -23 36 -23 5 0 -19 -2 -20 -10 -8 -5 8 -10 26 -10 39 0 17 -4 22 -16
17 -9 -3 -20 -6 -25 -6 -5 0 -9 -7 -9 -16 0 -26 -33 -74 -51 -74 -10 0 -20 -6
-22 -12 -3 -8 -6 -6 -6 5 -1 10 -9 17 -22 17 -20 0 -21 4 -16 51 7 56 -11 65
-27 13 -5 -16 -12 -38 -17 -49 l-9 -20 3 20 c1 11 -4 20 -10 19 -38 -3 -43 -5
-43 -18 0 -8 -5 -16 -12 -18 -6 -2 -17 -19 -23 -37 l-11 -34 -14 42 c-12 37
-30 56 -30 31 0 -5 -7 -7 -15 -4 -12 5 -15 -3 -15 -39 0 -25 -5 -49 -10 -52
-6 -4 -8 -11 -5 -16 4 -5 2 -9 -4 -9 -5 0 -13 5 -16 10 -3 6 -13 10 -21 10 -9
0 -12 -5 -8 -12 5 -7 1 -9 -12 -6 -43 12 -49 12 -47 2 1 -8 -6 -10 -20 -6 -22
5 -22 5 2 -22 14 -14 19 -26 13 -26 -24 0 -11 -19 18 -25 47 -10 44 -22 -7
-30 -32 -5 -54 -15 -72 -35 -116 -125 -142 -176 -160 -304 -6 -39 -15 -86 -20
-105 -6 -19 -9 -37 -6 -41 2 -4 -3 -31 -11 -61 -21 -75 -21 -80 -29 -205 -4
-74 -3 -114 4 -118 7 -4 7 -15 1 -31 -11 -30 -31 -215 -24 -226 3 -5 -9 -37
-26 -72 -36 -75 -63 -206 -55 -263 8 -54 88 -301 115 -355 12 -23 54 -73 94
-110 l71 -69 -1 -125 c-2 -121 -3 -128 -36 -198 -20 -39 -44 -83 -55 -97 l-21
-24 37 -46 c20 -24 39 -49 43 -55 73 -103 417 -439 509 -497 14 -9 32 -23 40
-30 8 -8 43 -33 79 -56 36 -23 72 -46 80 -52 34 -24 60 -37 170 -88 98 -44
130 -54 136 -39 5 15 51 196 66 260 6 26 14 47 18 47 4 0 39 -10 76 -21 45
-15 102 -23 165 -25 90 -3 98 -1 147 27 41 23 59 43 94 101 38 65 84 134 98
148 29 27 115 198 146 290 14 41 30 80 35 86 5 7 11 20 13 30 2 11 18 48 34
84 59 127 75 201 78 360 2 166 10 193 81 309 46 73 48 79 48 153 0 42 3 80 8
84 4 4 7 16 7 26 0 10 8 22 18 26 10 4 18 16 18 27 1 11 4 27 7 35 12 31 28
96 33 135 3 22 12 51 21 64 15 23 20 121 8 141 -3 6 1 7 11 3 16 -6 16 4 -3
53 -2 7 0 15 6 19 8 4 8 12 0 26 -10 19 -7 20 43 16 59 -5 80 3 114 42 32 36
60 130 45 153 -6 9 -8 25 -4 34 5 13 3 15 -7 9 -7 -4 -11 -4 -8 1 27 56 38 86
33 94 -3 5 4 26 15 47 26 49 26 103 -1 137 -11 14 -25 23 -31 20 -5 -3 -16 3
-24 15 -8 12 -21 21 -27 21 -7 0 -42 27 -77 59 -36 34 -77 62 -94 65 -17 4
-40 16 -53 28 -13 12 -23 16 -23 10 0 -22 -17 -12 -29 16 -16 37 -80 111 -81
92 0 -8 8 -28 18 -45 20 -32 44 -95 37 -95 -3 0 -11 16 -19 35 -8 19 -26 40
-40 47 -15 6 -26 15 -26 19 0 13 -80 109 -91 109 -8 0 -8 -4 0 -13 14 -18 2
-30 -16 -16 -7 6 -13 9 -13 6 0 -3 -11 5 -25 19 -17 17 -32 23 -44 19 -11 -3
-22 -1 -26 5 -3 5 -13 10 -21 10 -8 0 -31 12 -53 28 -21 15 -58 36 -82 46 -24
10 -53 23 -64 29 -97 53 -127 66 -174 71 -30 4 -70 14 -90 22 -20 9 -47 18
-60 20 -35 7 -40 11 -55 47 -12 27 -15 29 -21 14z m-155 -898 c0 -5 16 -9 35
-9 19 0 35 -5 35 -10 0 -6 15 -10 33 -10 29 0 60 -4 170 -25 21 -5 41 -14 44
-21 3 -8 21 -14 42 -15 20 0 54 -3 76 -7 33 -7 36 -9 18 -14 -43 -12 -24 -28
31 -28 30 0 56 -4 58 -8 2 -5 43 -16 91 -25 49 -9 118 -30 153 -46 36 -17 62
-26 59 -21 -10 16 8 11 40 -10 17 -11 36 -20 43 -20 20 0 73 -42 87 -70 7 -14
16 -51 20 -83 5 -39 12 -57 21 -57 12 0 14 -38 12 -239 l-3 -239 -22 9 c-12 4
-55 7 -95 7 -41 -1 -79 1 -85 5 -10 7 -84 -41 -98 -63 -15 -25 35 -37 188 -45
49 -3 93 -7 98 -10 8 -6 -4 -27 -54 -98 -10 -14 -32 -61 -48 -103 -28 -76 -28
-81 -22 -214 l6 -136 -36 -94 c-19 -52 -46 -120 -60 -150 -13 -30 -41 -98 -62
-150 -44 -112 -107 -232 -145 -276 -14 -17 -44 -62 -64 -100 -75 -136 -112
-159 -246 -158 -74 0 -113 6 -180 28 -47 14 -99 31 -117 37 -74 23 -559 322
-571 351 -2 4 -9 8 -15 8 -7 0 -44 33 -83 73 -121 124 -180 285 -183 495 -1
23 -5 42 -11 42 -23 0 -2 -219 30 -319 43 -128 138 -252 270 -347 105 -76 383
-242 498 -297 37 -18 72 -36 78 -40 9 -5 3 -37 -18 -114 -16 -60 -32 -123 -35
-141 -3 -18 -10 -35 -14 -38 -14 -8 -216 92 -309 154 -110 73 -241 172 -309
236 -30 28 -79 74 -108 101 -71 66 -209 224 -205 236 1 5 -2 8 -7 7 -4 -2 -25
19 -46 47 l-38 49 18 31 c67 112 75 138 80 256 6 148 -3 183 -56 231 -23 20
-44 38 -48 40 -12 6 -62 79 -75 111 -32 77 -30 81 13 38 39 -39 61 -51 61 -33
0 5 -13 21 -30 35 -64 57 -69 95 -44 311 8 69 -10 72 -21 3 -13 -77 -24 -76
-25 2 0 175 56 221 154 126 50 -48 86 -132 86 -200 0 -25 5 -45 10 -45 21 0 9
-18 -16 -24 -29 -8 -54 -57 -54 -106 0 -19 -5 -30 -14 -30 -20 0 -56 48 -63
83 -7 34 -29 30 -24 -4 6 -41 29 -76 65 -99 19 -11 38 -31 42 -43 9 -28 76
-127 102 -150 25 -23 66 -19 70 6 2 10 -8 37 -23 59 -21 31 -25 48 -21 73 7
36 -5 78 -30 103 -12 12 -15 30 -12 74 2 31 1 59 -3 60 -4 2 -9 30 -10 63 -6
138 -123 274 -215 251 -34 -9 -66 -82 -71 -166 -5 -70 9 -126 29 -114 8 5 9 0
5 -17 -4 -13 -7 -44 -8 -69 l0 -45 -25 70 c-22 60 -25 82 -21 155 3 47 12 108
21 135 17 57 68 115 99 115 28 0 107 -30 107 -41 0 -5 5 -9 11 -9 12 0 56 -38
117 -102 20 -21 42 -38 50 -38 16 0 29 -13 62 -62 14 -21 29 -38 33 -38 5 0 5
-4 2 -10 -11 -19 20 -10 46 13 16 14 35 48 49 92 12 39 26 74 31 80 5 5 9 15
9 23 0 8 9 27 20 43 12 15 26 43 31 61 6 18 20 52 30 75 10 24 19 46 19 49 0
4 8 25 19 48 29 63 61 150 61 164 0 7 11 34 25 61 13 27 22 51 19 53 -3 3 9
32 26 64 17 32 28 64 26 71 -6 15 9 27 82 66 56 30 65 32 146 29 47 -2 86 -8
86 -13z m-938 -1128 c-4 -29 21 -94 46 -120 10 -10 10 -17 2 -25 -8 -8 -13 -7
-20 4 -5 8 -12 11 -16 7 -4 -3 12 -35 34 -69 36 -55 39 -64 25 -72 -36 -20
-113 109 -113 189 0 24 5 45 10 47 6 2 13 17 15 33 5 38 4 35 13 35 5 0 7 -13
4 -29z"/>
<path d="M1899 2240 c-77 -23 -181 -99 -136 -100 75 -2 220 -33 287 -62 14 -6
79 -30 145 -53 66 -23 134 -48 152 -56 30 -12 34 -11 53 11 11 12 20 29 20 35
0 7 -21 34 -47 59 -36 35 -53 45 -70 41 -12 -3 -25 0 -28 5 -10 16 -106 60
-116 54 -5 -3 -35 6 -66 19 -55 23 -102 39 -148 50 -11 3 -32 2 -46 -3z"/>
<path d="M2510 1726 c0 -56 38 -185 63 -214 22 -28 77 -160 77 -188 0 -18 -13
-38 -42 -65 -48 -43 -46 -46 10 -23 50 19 64 49 53 109 -5 24 -6 46 -4 49 2 2
-13 30 -34 62 -64 99 -83 145 -95 237 -14 98 -28 115 -28 33z"/>
</g>
</svg>
